<mxfile host="app.diagrams.net" agent="Mozilla/5.0 (Windows NT 10.0; Win64; x64) AppleWebKit/537.36 (KHTML, like Gecko) Chrome/125.0.0.0 Safari/537.36" version="24.7.5">
  <diagram name="第 1 页" id="x-QEAbta-AVP9oPIon_w">
    <mxGraphModel dx="974" dy="312" grid="1" gridSize="10" guides="1" tooltips="1" connect="1" arrows="1" fold="1" page="0" pageScale="1" pageWidth="827" pageHeight="1169" math="0" shadow="0">
      <root>
        <mxCell id="0" />
        <mxCell id="1" parent="0" />
        <mxCell id="vtAz4cOcmQASGgDo1OFz-10" style="edgeStyle=orthogonalEdgeStyle;rounded=0;orthogonalLoop=1;jettySize=auto;html=1;exitX=1;exitY=0.5;exitDx=0;exitDy=0;entryX=0;entryY=0.5;entryDx=0;entryDy=0;" edge="1" parent="1" source="vtAz4cOcmQASGgDo1OFz-1" target="vtAz4cOcmQASGgDo1OFz-2">
          <mxGeometry relative="1" as="geometry" />
        </mxCell>
        <mxCell id="vtAz4cOcmQASGgDo1OFz-1" value="原始文本信息" style="text;html=1;align=center;verticalAlign=middle;whiteSpace=wrap;rounded=0;" vertex="1" parent="1">
          <mxGeometry x="-147" y="80" width="40" height="30" as="geometry" />
        </mxCell>
        <mxCell id="vtAz4cOcmQASGgDo1OFz-8" style="edgeStyle=orthogonalEdgeStyle;rounded=0;orthogonalLoop=1;jettySize=auto;html=1;exitX=1;exitY=0.5;exitDx=0;exitDy=0;entryX=0;entryY=0.5;entryDx=0;entryDy=0;" edge="1" parent="1" source="vtAz4cOcmQASGgDo1OFz-2" target="vtAz4cOcmQASGgDo1OFz-3">
          <mxGeometry relative="1" as="geometry" />
        </mxCell>
        <mxCell id="vtAz4cOcmQASGgDo1OFz-2" value="数据清洗" style="rounded=0;whiteSpace=wrap;html=1;" vertex="1" parent="1">
          <mxGeometry x="-85" y="82.5" width="60" height="25" as="geometry" />
        </mxCell>
        <mxCell id="vtAz4cOcmQASGgDo1OFz-14" style="edgeStyle=orthogonalEdgeStyle;rounded=0;orthogonalLoop=1;jettySize=auto;html=1;exitX=1;exitY=0.5;exitDx=0;exitDy=0;entryX=0;entryY=0.5;entryDx=0;entryDy=0;" edge="1" parent="1" source="vtAz4cOcmQASGgDo1OFz-3" target="vtAz4cOcmQASGgDo1OFz-4">
          <mxGeometry relative="1" as="geometry" />
        </mxCell>
        <mxCell id="vtAz4cOcmQASGgDo1OFz-3" value="方面级信息挖掘" style="rounded=0;whiteSpace=wrap;html=1;" vertex="1" parent="1">
          <mxGeometry x="22" y="75" width="60" height="40" as="geometry" />
        </mxCell>
        <mxCell id="vtAz4cOcmQASGgDo1OFz-20" style="edgeStyle=orthogonalEdgeStyle;rounded=0;orthogonalLoop=1;jettySize=auto;html=1;exitX=1;exitY=0.5;exitDx=0;exitDy=0;" edge="1" parent="1" source="vtAz4cOcmQASGgDo1OFz-4" target="vtAz4cOcmQASGgDo1OFz-5">
          <mxGeometry relative="1" as="geometry" />
        </mxCell>
        <mxCell id="vtAz4cOcmQASGgDo1OFz-4" value="情感类别信息挖掘" style="rounded=0;whiteSpace=wrap;html=1;" vertex="1" parent="1">
          <mxGeometry x="136" y="75" width="60" height="40" as="geometry" />
        </mxCell>
        <mxCell id="vtAz4cOcmQASGgDo1OFz-5" value="方面级情感类别定义" style="text;html=1;align=center;verticalAlign=middle;whiteSpace=wrap;rounded=0;" vertex="1" parent="1">
          <mxGeometry x="236" y="79.5" width="70" height="30" as="geometry" />
        </mxCell>
        <mxCell id="vtAz4cOcmQASGgDo1OFz-9" value="&lt;p style=&quot;line-height: 100%; font-size: 10px;&quot;&gt;&lt;font style=&quot;font-size: 10px;&quot;&gt;降噪后的文本&lt;/font&gt;&lt;/p&gt;" style="text;html=1;align=center;verticalAlign=middle;whiteSpace=wrap;rounded=0;spacing=2;fontSize=10;" vertex="1" parent="1">
          <mxGeometry x="-20" y="77.5" width="34" height="10" as="geometry" />
        </mxCell>
        <mxCell id="vtAz4cOcmQASGgDo1OFz-12" value="方面级信息描述" style="text;html=1;align=center;verticalAlign=middle;whiteSpace=wrap;rounded=0;" vertex="1" parent="1">
          <mxGeometry x="-147" y="120" width="87" height="30" as="geometry" />
        </mxCell>
        <mxCell id="vtAz4cOcmQASGgDo1OFz-15" value="&lt;p style=&quot;line-height: 100%; font-size: 10px;&quot;&gt;&lt;font style=&quot;font-size: 10px;&quot;&gt;方面级信息文本&lt;/font&gt;&lt;/p&gt;" style="text;html=1;align=center;verticalAlign=middle;whiteSpace=wrap;rounded=0;spacing=2;fontSize=10;" vertex="1" parent="1">
          <mxGeometry x="88" y="77.5" width="44" height="10" as="geometry" />
        </mxCell>
        <mxCell id="vtAz4cOcmQASGgDo1OFz-18" style="edgeStyle=orthogonalEdgeStyle;rounded=0;orthogonalLoop=1;jettySize=auto;html=1;exitX=1;exitY=0.5;exitDx=0;exitDy=0;entryX=0.5;entryY=1;entryDx=0;entryDy=0;" edge="1" parent="1" source="vtAz4cOcmQASGgDo1OFz-16" target="vtAz4cOcmQASGgDo1OFz-4">
          <mxGeometry relative="1" as="geometry" />
        </mxCell>
        <mxCell id="vtAz4cOcmQASGgDo1OFz-16" value="初始方面级情感类别定义" style="text;html=1;align=center;verticalAlign=middle;whiteSpace=wrap;rounded=0;" vertex="1" parent="1">
          <mxGeometry x="-147" y="146" width="137" height="30" as="geometry" />
        </mxCell>
        <mxCell id="vtAz4cOcmQASGgDo1OFz-19" style="edgeStyle=orthogonalEdgeStyle;rounded=0;orthogonalLoop=1;jettySize=auto;html=1;exitX=1;exitY=0.5;exitDx=0;exitDy=0;entryX=0.447;entryY=1.005;entryDx=0;entryDy=0;entryPerimeter=0;" edge="1" parent="1" source="vtAz4cOcmQASGgDo1OFz-12" target="vtAz4cOcmQASGgDo1OFz-3">
          <mxGeometry relative="1" as="geometry" />
        </mxCell>
      </root>
    </mxGraphModel>
  </diagram>
</mxfile>
